  0
SECTION
  2
ENTITIES
  0
POLYLINE
  8
patch_top
  5
1
 66
1
 10
0.0
 20
0.0
 30
0.0
 70
1
  0
VERTEX
  8
patch_top
  5
2
 10
7.35
 20
20.0
  0
VERTEX
  8
patch_top
  5
3
 10
10.35
 20
20.0
  0
SEQEND
  8
patch_top
  5
4
  0
POLYLINE
  8
patch_top
  5
5
 66
1
 10
0.0
 20
0.0
 30
0.0
 70
1
  0
VERTEX
  8
patch_top
  5
6
 10
7.35
 20
-20.0
  0
VERTEX
  8
patch_top
  5
7
 10
10.35
 20
-20.0
  0
SEQEND
  8
patch_top
  5
8
  0
POLYLINE
  8
patch_top
  5
9
 66
1
 10
0.0
 20
0.0
 30
0.0
 70
1
  0
VERTEX
  8
patch_top
  5
A
 10
-7.05
 20
-6.85
  0
VERTEX
  8
patch_top
  5
B
 10
7.05
 20
-6.85
  0
VERTEX
  8
patch_top
  5
C
 10
7.05
 20
6.85
  0
VERTEX
  8
patch_top
  5
D
 10
-7.05
 20
6.85
  0
SEQEND
  8
patch_top
  5
E
  0
POLYLINE
  8
patch_top
  5
F
 66
1
 10
0.0
 20
0.0
 30
0.0
 70
1
  0
VERTEX
  8
patch_top
  5
10
 10
-7.35
 20
20.0
  0
VERTEX
  8
patch_top
  5
11
 10
-10.35
 20
20.0
  0
SEQEND
  8
patch_top
  5
12
  0
POLYLINE
  8
patch_top
  5
13
 66
1
 10
0.0
 20
0.0
 30
0.0
 70
1
  0
VERTEX
  8
patch_top
  5
14
 10
-7.35
 20
-20.0
  0
VERTEX
  8
patch_top
  5
15
 10
-10.35
 20
-20.0
  0
SEQEND
  8
patch_top
  5
16
  0
POLYLINE
  8
patch_top
  5
17
 66
1
 10
0.0
 20
0.0
 30
0.0
 70
1
  0
VERTEX
  8
patch_top
  5
18
 10
-7.35
 20
-20.0
  0
VERTEX
  8
patch_top
  5
19
 10
-10.35
 20
-20.0
  0
VERTEX
  8
patch_top
  5
1A
 10
-10.35
 20
-9.85
  0
VERTEX
  8
patch_top
  5
1B
 10
-12.35
 20
-9.85
  0
VERTEX
  8
patch_top
  5
1C
 10
-12.35
 20
9.85
  0
VERTEX
  8
patch_top
  5
1D
 10
-10.35
 20
9.85
  0
VERTEX
  8
patch_top
  5
1E
 10
-10.35
 20
20.0
  0
VERTEX
  8
patch_top
  5
1F
 10
-7.35
 20
20.0
  0
VERTEX
  8
patch_top
  5
20
 10
-7.35
 20
9.85
  0
VERTEX
  8
patch_top
  5
21
 10
7.35
 20
9.85
  0
VERTEX
  8
patch_top
  5
22
 10
7.35
 20
20.0
  0
VERTEX
  8
patch_top
  5
23
 10
10.35
 20
20.0
  0
VERTEX
  8
patch_top
  5
24
 10
10.35
 20
9.85
  0
VERTEX
  8
patch_top
  5
25
 10
12.35
 20
9.85
  0
VERTEX
  8
patch_top
  5
26
 10
12.35
 20
-9.85
  0
VERTEX
  8
patch_top
  5
27
 10
10.35
 20
-9.85
  0
VERTEX
  8
patch_top
  5
28
 10
10.35
 20
-20.0
  0
VERTEX
  8
patch_top
  5
29
 10
7.35
 20
-20.0
  0
VERTEX
  8
patch_top
  5
2A
 10
7.35
 20
-9.85
  0
VERTEX
  8
patch_top
  5
2B
 10
-7.35
 20
-9.85
  0
SEQEND
  8
patch_top
  5
2C
  0
ENDSEC
  0
EOF
